Director: Jon Chu

Writers: Amy Andelson, Emily Meyer, and 1 more credit »

Stars: Sharni Vinson, Rick Malambri and Adam G. Sevani

Plot:A tight-knit group of New York City street dancers, including Luke (Malambri) and Natalie (Vinson), 
team up with NYU freshman Moose (Sevani), and find themselves pitted against the world's best hip 
hop dancers in a high-stakes showdown that will change their lives forever.   

Plot Keywords: Dancer | New York City | Dance Crew | Dance | Movie  | 

Taglines: Two Worlds. One Dream. 

Genres: Drama | Music | Romance

Motion Picture Rating (MPAA)
Rated PG-13 for brief strong language

------------------------------------------------------------
        
General
Format                           : MPEG-4
Format profile                   : Base Media
Codec ID                         : isom
File size                        : 351 MiB
Duration                         : 1h 47mn
Overall bit rate                 : 457 Kbps


Video
ID                               : 1
Format                           : AVC
Format/Info                      : Advanced Video Codec
Format profile                   : High@L2.2
Format settings, CABAC           : Yes
Format settings, ReFrames        : 8 frames
Codec ID                         : avc1
Codec ID/Info                    : Advanced Video Coding
Duration                         : 1h 47mn
Bit rate mode                    : Variable
Bit rate                         : 406 Kbps
Maximum bit rate                 : 3 227 Kbps
Width                            : 592 pixels
Height                           : 320 pixels
Display aspect ratio             : 1.850
Frame rate mode                  : Constant
Frame rate                       : 23.976 fps
Color space                      : YUV
Chroma subsampling               : 4:2:0
Bit depth                        : 8 bits
Scan type                        : Progressive


Audio
ID                               : 2
Format                           : AAC
Format/Info                      : Advanced Audio Codec
Format version                   : Version 4
Format profile                   : LC
Format settings, SBR             : Yes
Format settings, PS              : Yes
Codec ID                         : 40
Duration                         : 1h 47mn
Bit rate mode                    : Variable
Bit rate                         : 48.0 Kbps
Maximum bit rate                 : 64.5 Kbps
Channel(s)                       : 2 channels
Channel positions                : Front: L R
Sampling rate                    : 48.0 KHz
Stream size                      : 36.8 MiB (10%)
Title                            : English
Language                         : English


Text
ID                               : 3
Format                           : Timed text
Codec ID                         : tx3g
Duration                         : 1h 39mn
Bit rate mode                    : Variable
Bit rate                         : 43 bps
Stream size                      : 31.8 KiB (0%)
Language                         : English


------------------------------------------------------------
                        Comment seed & enjoy!!